<svg width="16" height="16" viewBox="0 0 16 16" fill="none" xmlns="http://www.w3.org/2000/svg">
<path fill-rule="evenodd" clip-rule="evenodd" d="M11.3333 6C12.4379 6 13.3333 5.10457 13.3333 4C13.3333 2.89543 12.4379 2 11.3333 2C10.2288 2 9.33333 2.89543 9.33333 4C9.33333 4.09139 9.33946 4.18135 9.35133 4.26949L5.37108 6.54392C5.01306 6.20667 4.53066 6 4 6C2.89543 6 2 6.89543 2 8C2 9.10457 2.89543 10 4 10C4.51368 10 4.98212 9.80635 5.33632 9.48806L9.36695 12.3671C9.53933 13.2963 10.3542 14 11.3333 14C12.4379 14 13.3333 13.1046 13.3333 12C13.3333 10.8954 12.4379 10 11.3333 10C10.6235 10 10.0001 10.3698 9.64509 10.9272L5.9766 8.30687C5.99201 8.20683 6 8.10435 6 8C6 7.9086 5.99387 7.81864 5.982 7.73049L9.96224 5.45607C10.3203 5.79332 10.8027 6 11.3333 6ZM10.6667 12.0057C10.6667 12.0021 10.6667 11.9985 10.6667 11.9949C10.6694 11.6291 10.9668 11.3333 11.3333 11.3333C11.7015 11.3333 12 11.6318 12 12C12 12.3682 11.7015 12.6667 11.3333 12.6667C10.967 12.6667 10.6697 12.3712 10.6667 12.0057ZM11.3333 4.66667C11.7015 4.66667 12 4.36819 12 4C12 3.63181 11.7015 3.33333 11.3333 3.33333C10.9651 3.33333 10.6667 3.63181 10.6667 4C10.6667 4.36819 10.9651 4.66667 11.3333 4.66667ZM4.66667 8C4.66667 8.36819 4.36819 8.66667 4 8.66667C3.63181 8.66667 3.33333 8.36819 3.33333 8C3.33333 7.63181 3.63181 7.33333 4 7.33333C4.36819 7.33333 4.66667 7.63181 4.66667 8Z" fill="#B4B4CC"/>
</svg>
