<svg width="16" height="16" viewBox="0 0 16 16" fill="none" xmlns="http://www.w3.org/2000/svg">
<path d="M11.7089 0.669067L9.85738 0.666016C7.77727 0.666016 6.43301 2.08274 6.43301 4.2755V5.93972H4.57141C4.41054 5.93972 4.28027 6.07368 4.28027 6.23893V8.65019C4.28027 8.81543 4.41069 8.94925 4.57141 8.94925H6.43301V15.0336C6.43301 15.1989 6.56328 15.3327 6.72415 15.3327H9.15302C9.31388 15.3327 9.44415 15.1987 9.44415 15.0336V8.94925H11.6208C11.7817 8.94925 11.9119 8.81543 11.9119 8.65019L11.9128 6.23893C11.9128 6.15959 11.8821 6.0836 11.8276 6.02745C11.7731 5.9713 11.6988 5.93972 11.6215 5.93972H9.44415V4.52894C9.44415 3.85087 9.60145 3.50664 10.4613 3.50664L11.7086 3.50618C11.8693 3.50618 11.9996 3.37221 11.9996 3.20712V0.968129C11.9996 0.803187 11.8695 0.669372 11.7089 0.669067Z" fill="#B4B4CC"/>
</svg>
