<svg width="34" height="34" viewBox="0 0 34 34" fill="none" xmlns="http://www.w3.org/2000/svg">
<circle cx="17" cy="17" r="17" fill="#5B2DBC"/>
<path d="M26.6611 11.9412H23.3314C23.1955 11.9412 23.0621 11.978 22.9455 12.0478C22.8289 12.1175 22.7334 12.2176 22.6691 12.3374C22.6691 12.3374 21.3411 14.7831 20.9145 15.6068C19.767 17.8229 19.0239 17.1272 19.0239 16.0987V12.5525C19.0239 12.2562 18.9061 11.972 18.6966 11.7625C18.4871 11.5529 18.2029 11.4352 17.9065 11.4352H15.4031C15.0622 11.4099 14.7204 11.4721 14.4103 11.616C14.1002 11.7599 13.832 11.9807 13.6312 12.2574C13.6312 12.2574 14.9025 12.0518 14.9025 13.7647C14.9025 14.1894 14.9243 15.4113 14.9443 16.4361C14.948 16.5871 14.9054 16.7357 14.822 16.8617C14.7387 16.9877 14.6187 17.0851 14.4782 17.1407C14.3378 17.1964 14.1837 17.2076 14.0366 17.1728C13.8896 17.1381 13.7568 17.0591 13.6561 16.9464C12.6314 15.5213 11.7826 13.9775 11.1282 12.3488C11.072 12.2269 10.982 12.1238 10.8689 12.0515C10.7559 11.9793 10.6244 11.941 10.4903 11.9412C9.76816 11.9412 8.32318 11.9412 7.46506 11.9412C7.38184 11.9406 7.29974 11.9602 7.22579 11.9984C7.15184 12.0366 7.08827 12.0921 7.04053 12.1603C6.99278 12.2284 6.9623 12.3072 6.9517 12.3897C6.9411 12.4722 6.95069 12.5561 6.97965 12.6341C7.89825 15.1538 11.8553 23.0721 16.3718 23.0721H18.2728C18.472 23.0721 18.663 22.993 18.8039 22.8521C18.9447 22.7113 19.0239 22.5203 19.0239 22.3211V21.1732C19.0239 21.0292 19.066 20.8883 19.1451 20.768C19.2241 20.6476 19.3367 20.553 19.4688 20.4959C19.601 20.4387 19.747 20.4214 19.8889 20.4462C20.0307 20.471 20.1622 20.5368 20.2672 20.6354L22.5425 22.7732C22.7469 22.9652 23.0167 23.0721 23.2971 23.0721H26.2851C27.7262 23.0721 27.7262 22.0721 26.9405 21.2983C26.3875 20.7537 24.3922 18.6505 24.3922 18.6505C24.2213 18.4735 24.1194 18.2412 24.1048 17.9956C24.0903 17.75 24.1641 17.5073 24.3129 17.3113C24.9578 16.4626 26.0128 15.0733 26.4601 14.4781C27.0717 13.6646 28.1784 11.9412 26.6611 11.9412Z" fill="white"/>
</svg>
