<svg width="16" height="16" viewBox="0 0 16 16" fill="none" xmlns="http://www.w3.org/2000/svg">
<path fill-rule="evenodd" clip-rule="evenodd" d="M2 8C3.0099 5.64546 5.31631 4 8 4C10.6837 4 12.9901 5.64546 14 8C12.9901 10.3545 10.6837 12 8 12C5.31631 12 3.0099 10.3545 2 8ZM10.6667 8C10.6667 9.47276 9.47276 10.6667 8 10.6667C6.52724 10.6667 5.33333 9.47276 5.33333 8C5.33333 6.52724 6.52724 5.33333 8 5.33333C8.42594 5.33333 8.82856 5.4332 9.18571 5.61079C8.87 5.85462 8.66667 6.2369 8.66667 6.66667C8.66667 7.40305 9.26362 8 10 8C10.2405 8 10.4662 7.93631 10.661 7.82488C10.6648 7.88277 10.6667 7.94116 10.6667 8Z" fill="#B4B4CC"/>
<path d="M9.33333 8C9.33333 8.73638 8.73638 9.33333 8 9.33333C7.26362 9.33333 6.66667 8.73638 6.66667 8C6.66667 7.26362 7.26362 6.66667 8 6.66667C8.73638 6.66667 9.33333 7.26362 9.33333 8Z" fill="#B4B4CC"/>
</svg>
