<svg width="34" height="34" viewBox="0 0 34 34" fill="none" xmlns="http://www.w3.org/2000/svg">
<circle cx="17" cy="17" r="17" fill="#5B2DBC"/>
<path fill-rule="evenodd" clip-rule="evenodd" d="M25.1431 13.8633C25.1431 13.8633 24.9806 12.7181 24.4822 12.2137C23.8506 11.5519 23.1421 11.5488 22.8173 11.51C20.492 11.3418 17.0037 11.3418 17.0037 11.3418H16.9964C16.9964 11.3418 13.5083 11.3418 11.1828 11.51C10.858 11.5488 10.1499 11.5519 9.51786 12.2137C9.01951 12.7181 8.8574 13.8633 8.8574 13.8633C8.8574 13.8633 8.69122 15.208 8.69122 16.5527V17.8136C8.69122 19.1582 8.8574 20.5029 8.8574 20.5029C8.8574 20.5029 9.01951 21.6481 9.51786 22.1525C10.1499 22.8144 10.9802 22.7932 11.35 22.8626C12.6796 22.9902 17.0001 23.0297 17.0001 23.0297C17.0001 23.0297 20.492 23.0244 22.8173 22.8564C23.1421 22.8176 23.8506 22.8144 24.4822 22.1525C24.9806 21.6481 25.1431 20.5029 25.1431 20.5029C25.1431 20.5029 25.3089 19.1582 25.3089 17.8136V16.5527C25.3089 15.208 25.1431 13.8633 25.1431 13.8633ZM15.2846 19.3412L15.2838 14.6722L19.7739 17.0147L15.2846 19.3412Z" fill="white"/>
</svg>
