<svg width="16" height="16" viewBox="0 0 16 16" fill="none" xmlns="http://www.w3.org/2000/svg">
<path d="M14.2994 4.9208C14.2682 4.21221 14.1536 3.72506 13.9895 3.30294C13.8201 2.85487 13.5596 2.45371 13.2183 2.12023C12.8848 1.78155 12.481 1.51839 12.0381 1.3517C11.6136 1.18755 11.129 1.07297 10.4204 1.04172C9.70649 1.00784 9.47986 1 7.66926 1C5.85866 1 5.63203 1.00784 4.9208 1.03908C4.21221 1.07032 3.72506 1.18501 3.30304 1.34905C2.85487 1.51839 2.45371 1.77891 2.12023 2.12023C1.78155 2.45371 1.51849 2.85751 1.3517 3.3004C1.18755 3.72506 1.07297 4.20956 1.04172 4.91815C1.00784 5.63203 1 5.85866 1 7.66926C1 9.47987 1.00784 9.7065 1.03908 10.4177C1.07032 11.1263 1.18501 11.6135 1.34916 12.0356C1.51849 12.4837 1.78155 12.8848 2.12023 13.2183C2.45371 13.557 2.85751 13.8201 3.30039 13.9868C3.72506 14.151 4.20956 14.2656 4.91825 14.2968C5.62938 14.3281 5.85612 14.3359 7.66672 14.3359C9.47732 14.3359 9.70395 14.3281 10.4152 14.2968C11.1238 14.2656 11.6109 14.151 12.0329 13.9868C12.9292 13.6403 13.6378 12.9317 13.9843 12.0356C14.1483 11.6109 14.263 11.1263 14.2943 10.4177C14.3255 9.7065 14.3333 9.47987 14.3333 7.66926C14.3333 5.85866 14.3307 5.63203 14.2994 4.9208ZM13.0985 10.3656C13.0698 11.0169 12.9604 11.3686 12.8692 11.6031C12.6452 12.1841 12.1841 12.6452 11.6031 12.8692C11.3686 12.9604 11.0144 13.0698 10.3656 13.0984C9.66222 13.1298 9.45127 13.1375 7.67191 13.1375C5.89255 13.1375 5.67894 13.1298 4.97809 13.0984C4.32679 13.0698 3.9751 12.9604 3.74063 12.8692C3.45152 12.7624 3.18835 12.5931 2.97475 12.3716C2.75331 12.1554 2.58397 11.8948 2.47712 11.6057C2.38594 11.3713 2.27654 11.0169 2.24794 10.3683C2.2166 9.66487 2.20886 9.45381 2.20886 7.67445C2.20886 5.89509 2.2166 5.68149 2.24794 4.98074C2.27654 4.32944 2.38594 3.97774 2.47712 3.74328C2.58397 3.45406 2.75331 3.191 2.97739 2.97729C3.19354 2.75585 3.45406 2.58651 3.74328 2.47976C3.97774 2.38858 4.33209 2.27918 4.98074 2.25049C5.68413 2.21925 5.89519 2.21141 7.67445 2.21141C9.45646 2.21141 9.66741 2.21925 10.3683 2.25049C11.0196 2.27918 11.3713 2.38858 11.6057 2.47976C11.8948 2.58651 12.158 2.75585 12.3716 2.97729C12.5931 3.19354 12.7624 3.45406 12.8692 3.74328C12.9604 3.97774 13.0698 4.33199 13.0985 4.98074C13.1298 5.68414 13.1376 5.89509 13.1376 7.67445C13.1376 9.45381 13.1298 9.66223 13.0985 10.3656Z" fill="#B4B4CC"/>
<path d="M7.66898 4.24414C5.77768 4.24414 4.24316 5.77855 4.24316 7.66996C4.24316 9.56136 5.77768 11.0958 7.66898 11.0958C9.56038 11.0958 11.0948 9.56136 11.0948 7.66996C11.0948 5.77855 9.56038 4.24414 7.66898 4.24414ZM7.66898 9.8922C6.442 9.8922 5.44674 8.89704 5.44674 7.66996C5.44674 6.44287 6.442 5.44771 7.66898 5.44771C8.89606 5.44771 9.89122 6.44287 9.89122 7.66996C9.89122 8.89704 8.89606 9.8922 7.66898 9.8922Z" fill="#B4B4CC"/>
<path d="M12.0303 4.10837C12.0303 4.55003 11.6722 4.90814 11.2304 4.90814C10.7888 4.90814 10.4307 4.55003 10.4307 4.10837C10.4307 3.6666 10.7888 3.30859 11.2304 3.30859C11.6722 3.30859 12.0303 3.6666 12.0303 4.10837Z" fill="#B4B4CC"/>
</svg>
