<svg width="16" height="16" viewBox="0 0 16 16" fill="none" xmlns="http://www.w3.org/2000/svg">
<path d="M12.6175 8.58743C12.3911 8.30743 12.4559 8.18286 12.6175 7.93257C12.6204 7.92971 14.4889 5.40057 14.6814 4.54286L14.6826 4.54229C14.7782 4.22971 14.6826 4 14.22 4H12.6892C12.2996 4 12.1199 4.19714 12.0236 4.41771C12.0236 4.41771 11.2443 6.24514 10.1417 7.42971C9.78589 7.772 9.62138 7.88171 9.42712 7.88171C9.33146 7.88171 9.1827 7.772 9.1827 7.45943V4.54229C9.1827 4.16743 9.07361 4 8.75102 4H6.3441C6.09968 4 5.95442 4.17486 5.95442 4.33771C5.95442 4.69314 6.50569 4.77486 6.56286 5.77486V7.94457C6.56286 8.42 6.47477 8.50743 6.27935 8.50743C5.759 8.50743 4.49604 6.67257 3.7476 4.57257C3.59651 4.16514 3.44892 4.00057 3.05632 4.00057H1.52502C1.08809 4.00057 1 4.19771 1 4.41829C1 4.808 1.52035 6.74571 3.41975 9.30571C4.68563 11.0531 6.46836 12 8.09008 12C9.06486 12 9.18387 11.7897 9.18387 11.428C9.18387 9.75829 9.09578 9.60057 9.58405 9.60057C9.81039 9.60057 10.2001 9.71029 11.1101 10.5531C12.1502 11.5526 12.3211 12 12.9033 12H14.434C14.8704 12 15.0915 11.7897 14.9643 11.3749C14.6732 10.5023 12.7062 8.70743 12.6175 8.58743Z" fill="#B4B4CC"/>
</svg>
