<svg width="34" height="34" viewBox="0 0 34 34" fill="none" xmlns="http://www.w3.org/2000/svg">
<circle cx="17" cy="17" r="17" fill="#5B2DBC"/>
<path d="M16.9486 13.0078C14.55 13.0078 12.5626 14.9609 12.5626 17.3938C12.5626 19.8267 14.5157 21.7798 16.9486 21.7798C19.3814 21.7798 21.3345 19.7924 21.3345 17.3938C21.3345 14.9952 19.3471 13.0078 16.9486 13.0078ZM16.9486 20.2036C15.4066 20.2036 14.1388 18.9358 14.1388 17.3938C14.1388 15.8519 15.4066 14.584 16.9486 14.584C18.4905 14.584 19.7583 15.8519 19.7583 17.3938C19.7583 18.9358 18.4905 20.2036 16.9486 20.2036Z" fill="white"/>
<path d="M21.5059 13.8995C22.0547 13.8995 22.4996 13.4546 22.4996 12.9058C22.4996 12.357 22.0547 11.9121 21.5059 11.9121C20.9571 11.9121 20.5122 12.357 20.5122 12.9058C20.5122 13.4546 20.9571 13.8995 21.5059 13.8995Z" fill="white"/>
<path d="M24.0758 10.3356C23.1849 9.41038 21.917 8.93066 20.4779 8.93066H13.4192C10.4381 8.93066 8.45068 10.9181 8.45068 13.8992V20.9236C8.45068 22.397 8.9304 23.6649 9.88984 24.59C10.815 25.4809 12.0486 25.9264 13.4535 25.9264H20.4436C21.917 25.9264 23.1506 25.4467 24.0415 24.59C24.9667 23.6991 25.4464 22.4313 25.4464 20.9579V13.8992C25.4464 12.46 24.9667 11.2265 24.0758 10.3356ZM23.9387 20.9579C23.9387 22.0201 23.5618 22.8767 22.945 23.4593C22.3282 24.0418 21.4716 24.3502 20.4436 24.3502H13.4535C12.4255 24.3502 11.5688 24.0418 10.9521 23.4593C10.3353 22.8425 10.0269 21.9858 10.0269 20.9236V13.8992C10.0269 12.8712 10.3353 12.0146 10.9521 11.3978C11.5346 10.8153 12.4255 10.5069 13.4535 10.5069H20.5122C21.5401 10.5069 22.3968 10.8153 23.0135 11.432C23.5961 12.0488 23.9387 12.9055 23.9387 13.8992V20.9579Z" fill="white"/>
</svg>
