<svg width="275" height="150" viewBox="0 0 275 150" fill="none" xmlns="http://www.w3.org/2000/svg">
<path d="M36.6295 117.609L31.5913 122.415C28.164 118.8 24.3082 116.992 20.0241 116.992C16.4083 116.992 13.358 118.226 10.8732 120.693C8.40549 123.161 7.17166 126.203 7.17166 129.818C7.17166 132.338 7.72003 134.574 8.81677 136.527C9.91351 138.481 11.4644 140.015 13.4694 141.129C15.4743 142.242 17.7021 142.799 20.1526 142.799C22.2433 142.799 24.154 142.414 25.8848 141.643C27.6156 140.854 29.5178 139.432 31.5913 137.376L36.4752 142.465C33.682 145.19 31.0429 147.084 28.5581 148.146C26.0733 149.191 23.2372 149.714 20.0498 149.714C14.172 149.714 9.35658 147.855 5.60366 144.136C1.86789 140.4 0 135.619 0 129.793C0 126.023 0.848261 122.673 2.54478 119.742C4.25844 116.812 6.7004 114.456 9.87067 112.673C13.0581 110.891 16.4854 110 20.1526 110C23.2715 110 26.2704 110.66 29.1493 111.979C32.0454 113.299 34.5388 115.175 36.6295 117.609Z" fill="#CEC7DD"/>
<path d="M61.8706 110C67.2172 110 71.8098 111.936 75.6484 115.809C79.5042 119.682 81.432 124.403 81.432 129.973C81.432 135.491 79.5299 140.16 75.7255 143.982C71.9384 147.803 67.3372 149.714 61.922 149.714C56.2498 149.714 51.5373 147.752 47.7843 143.828C44.0314 139.903 42.155 135.242 42.155 129.844C42.155 126.228 43.0289 122.904 44.7769 119.871C46.5248 116.837 48.9239 114.438 51.9742 112.673C55.0417 110.891 58.3405 110 61.8706 110ZM61.7935 117.043C58.2976 117.043 55.3587 118.26 52.9767 120.693C50.5947 123.127 49.4037 126.22 49.4037 129.973C49.4037 134.154 50.9032 137.461 53.9021 139.895C56.2327 141.797 58.906 142.748 61.922 142.748C65.3322 142.748 68.2369 141.514 70.636 139.047C73.0351 136.579 74.2347 133.537 74.2347 129.921C74.2347 126.323 73.0265 123.281 70.6103 120.796C68.194 118.294 65.2551 117.043 61.7935 117.043Z" fill="#CEC7DD"/>
<path d="M89.271 148.763V110.951H95.2088C98.6533 110.951 101.172 111.174 102.766 111.619C105.028 112.219 106.827 113.333 108.164 114.961C109.501 116.589 110.169 118.508 110.169 120.719C110.169 122.158 109.861 123.469 109.244 124.652C108.644 125.817 107.659 126.914 106.288 127.942C108.584 129.022 110.263 130.375 111.326 132.003C112.388 133.614 112.919 135.525 112.919 137.736C112.919 139.861 112.371 141.797 111.274 143.545C110.178 145.293 108.764 146.604 107.033 147.478C105.302 148.335 102.912 148.763 99.8614 148.763H89.271ZM96.4684 117.814V125.783H98.0364C99.7843 125.783 101.078 125.414 101.918 124.677C102.775 123.941 103.203 122.938 103.203 121.67C103.203 120.488 102.8 119.554 101.995 118.868C101.189 118.166 99.9642 117.814 98.3191 117.814H96.4684ZM96.4684 132.209V141.9H98.2677C101.249 141.9 103.254 141.523 104.283 140.769C105.328 140.015 105.851 138.918 105.851 137.479C105.851 135.851 105.242 134.565 104.026 133.623C102.809 132.68 100.787 132.209 97.9592 132.209H96.4684Z" fill="#CEC7DD"/>
<path d="M120.887 110.951H141.528V117.994H128.033V124.832H141.528V131.746H128.033V141.694H141.528V148.763H120.887V110.951Z" fill="#CEC7DD"/>
<path d="M145.588 110.951H166.486V118.046H159.597V148.763H152.297V118.046H145.588V110.951Z" fill="#CEC7DD"/>
<path d="M172.449 110.951H179.749V125.217H192.396V110.951H199.67V148.763H192.396V132.183H179.749V148.763H172.449V110.951Z" fill="#CEC7DD"/>
<path d="M236.916 110.951V148.763H229.718V125.089L215.606 148.763H209.334V110.951H216.532V135.396L230.849 110.951H236.916Z" fill="#CEC7DD"/>
<path d="M246.657 110.951H253.931V123.958L264.188 110.951H272.85L259.638 127.813L274.135 148.763H265.601L253.931 131.978V148.763H246.657V110.951Z" fill="#CEC7DD"/>
<path d="M102.675 21.8552C102.206 21.5864 101.731 21.4263 101.274 21.2258C100.829 21.0299 100.378 20.8448 99.9299 20.6547C99.4672 20.4584 99.0047 20.2614 98.5418 20.0653C98.079 19.8692 97.6158 19.6736 97.1529 19.4781C96.6897 19.2825 96.2265 19.0878 95.7633 18.8922C95.3148 18.7028 94.866 18.5139 94.4179 18.3233C93.9559 18.1267 93.4946 17.9283 93 17.7164C93.0644 17.6272 93.1035 17.5428 93.1679 17.4883C95.0183 15.9198 96.9034 14.3973 98.9507 13.0896C99.9936 12.4234 101.103 11.9192 102.313 11.6522C103.368 11.4197 104.428 11.3402 105.488 11.6024C105.821 11.6849 106.149 11.8061 106.464 11.9438C107.601 12.4405 108.732 12.9519 109.866 13.4571C110.023 13.5273 110.182 13.5929 110.371 13.6735C110.514 13.5647 110.666 13.4554 110.811 13.3393C113.596 11.1224 116.614 9.29334 119.858 7.84031C121.696 7.01719 123.584 6.33205 125.521 5.78583C126.837 5.41504 128.169 5.11538 129.514 4.86859C131.217 4.55612 132.935 4.3814 134.658 4.24769C135.127 4.21118 135.6 4.21189 136.071 4.20525C136.558 4.19838 137.045 4.20786 137.533 4.20241C138.871 4.18747 140.2 4.31028 141.529 4.44541C142.609 4.55517 143.679 4.72041 144.746 4.91031C145.441 5.03406 146.133 5.1865 146.82 5.35056C148.363 5.71921 149.883 6.1706 151.374 6.7154C155.433 8.19806 159.184 10.2492 162.617 12.8843C163.003 13.1809 163.386 13.4817 163.787 13.7933C163.92 13.7418 164.051 13.6972 164.178 13.6413C165.499 13.0564 166.826 12.482 168.14 11.8798C169.193 11.3971 170.293 11.3206 171.414 11.4555C172.805 11.6226 174.095 12.0975 175.297 12.8227C176.443 13.5147 177.533 14.2894 178.589 15.1121C179.495 15.8183 180.38 16.5516 181.273 17.2749C181.381 17.3619 181.478 17.4615 181.606 17.5793C181.484 17.6953 181.352 17.733 181.228 17.7851C178.695 18.8512 176.161 19.9178 173.628 20.9847C172.976 21.259 172.325 21.5337 171.675 21.8106C171.591 21.8462 171.514 21.8972 171.433 21.9415C172.123 23.0384 172.811 24.1088 173.474 25.1953C174.139 26.2861 174.717 27.4253 175.262 28.5812C175.806 29.737 176.295 30.9167 176.732 32.1172C177.17 33.3175 177.552 34.5361 177.878 35.7719C178.203 37.0081 178.475 38.2567 178.683 39.5182C178.892 40.7797 179.026 42.0506 179.157 43.323C179.288 44.5992 179.297 45.8749 179.312 47.1537C179.327 48.4365 179.178 49.7062 179.063 50.9791C178.949 52.2375 178.761 53.4859 178.523 54.7265C178.283 55.9823 177.987 57.2243 177.635 58.4533C177.284 59.6821 176.875 60.8909 176.414 62.0827C175.954 63.2747 175.44 64.4425 174.873 65.5876C174.306 66.7332 173.687 67.8495 173.021 68.9398C172.355 70.0304 171.638 71.0863 170.876 72.1107C170.113 73.1353 169.305 74.1225 168.453 75.0746C167.602 76.0269 166.707 76.9361 165.776 77.8088C164.845 78.6815 163.873 79.5074 162.866 80.2905C146.639 92.9019 123.772 91.9946 108.565 78.1191C100.739 70.8054 96.094 61.8449 94.9874 51.145C93.882 40.4589 96.5017 30.7031 102.675 21.8552ZM101.252 49.1906C101.228 49.371 101.202 49.4616 101.205 49.5514C101.226 50.151 101.222 50.7534 101.282 51.3489C101.437 52.8745 101.73 54.3766 102.137 55.8545C102.768 58.1413 103.621 60.3433 104.659 62.4748C104.787 62.7389 104.961 62.8838 105.227 62.9905C106.7 63.5817 108.135 64.2581 109.551 64.9748C113.206 66.8237 116.691 68.9543 120.024 71.3376C122.291 72.9592 124.47 74.6936 126.557 76.5452C128.644 78.3972 130.627 80.3543 132.49 82.4332C132.68 82.6449 132.877 82.7651 133.168 82.7938C134.451 82.9206 135.734 83.0185 137.024 83.0301C138.55 83.0439 140.07 82.95 141.587 82.7871C141.841 82.7598 142.017 82.6567 142.187 82.4711C142.921 81.6698 143.654 80.8666 144.416 80.0916C147.77 76.6777 151.418 73.6145 155.34 70.8789C158.053 68.9863 160.874 67.2734 163.802 65.7405C165.487 64.8586 167.2 64.0341 168.973 63.343C169.192 63.2579 169.341 63.1272 169.435 62.9061C169.589 62.5436 169.777 62.1955 169.935 61.8347C170.848 59.752 171.615 57.6193 172.124 55.3965C172.43 54.0554 172.653 52.7024 172.738 51.3288C172.763 50.9352 172.759 50.5398 172.76 50.1453C172.76 50.0794 172.719 50.0132 172.698 49.9511C172.65 49.9613 172.631 49.9599 172.62 49.9687C172.572 50.009 172.525 50.0505 172.48 50.0948C171.312 51.261 169.988 52.2138 168.531 52.9798C166.304 54.1497 163.923 54.8052 161.439 55.1049C159.51 55.3377 157.585 55.319 155.662 55.0086C154.619 54.8403 153.596 54.607 152.601 54.259C149.303 53.1052 146.568 51.1868 144.583 48.2575C144.534 48.1859 144.455 48.1354 144.375 48.0607C143.774 48.5562 143.192 49.0355 142.61 49.5161C142.016 50.0076 141.422 50.4997 140.828 50.9919C140.246 51.4741 139.67 51.9627 139.082 52.4378C138.486 52.92 137.915 53.4349 137.279 53.9062C136.684 53.401 136.11 52.9129 135.535 52.4248C134.96 51.9354 134.384 51.4459 133.808 50.9568C133.22 50.4575 132.637 49.9523 132.042 49.4613C131.463 48.9834 130.914 48.4668 130.289 48.0055C130.205 48.1093 130.135 48.1901 130.07 48.2745C129.783 48.6494 129.517 49.0434 129.206 49.3978C126.917 52.0085 124.031 53.6082 120.69 54.416C119.619 54.6748 118.529 54.8081 117.43 54.8896C115.805 55.0103 114.193 54.9008 112.59 54.6696C111.439 54.5039 110.308 54.2398 109.194 53.8934C106.296 52.9916 103.712 51.5542 101.531 49.4161C101.468 49.3528 101.392 49.3023 101.252 49.1906ZM173.865 37.6887C173.877 29.663 167.418 23.0975 159.401 23.037C151.353 22.9763 144.756 29.4831 144.714 37.6076C144.672 45.6681 151.097 52.2583 159.155 52.3302C167.369 52.4032 173.874 45.7262 173.865 37.6887ZM100.841 37.6799C100.834 45.6724 107.232 52.2716 115.307 52.3304C123.49 52.3899 130.031 45.7348 129.993 37.6164C129.956 29.5293 123.415 23.0318 115.409 23.0365C107.356 23.041 100.839 29.6097 100.841 37.6799ZM117.202 16.5732C117.331 16.636 117.466 16.7083 117.605 16.7692C121.004 18.2512 124.401 19.7355 127.801 21.2111C129.286 21.855 130.78 22.4759 132.265 23.1179C132.751 23.3281 133.257 23.4026 133.778 23.4251C134.315 23.4483 134.848 23.3912 135.372 23.2888C136.025 23.1612 136.643 22.9356 137.163 22.4944C137.209 22.456 137.27 22.436 137.336 22.4009C137.457 22.4851 137.574 22.5622 137.686 22.6458C137.979 22.8647 138.304 23.0249 138.647 23.1401C139.588 23.4557 140.556 23.5126 141.535 23.4109C141.781 23.3853 142.028 23.3089 142.259 23.2162C142.93 22.9479 143.595 22.6651 144.258 22.378C147.184 21.1106 150.109 19.8408 153.034 18.5691C154.417 17.9677 155.797 17.3603 157.178 16.7555C157.302 16.7012 157.439 16.6656 157.53 16.5225C157.457 16.4568 157.406 16.3994 157.344 16.3556C156.895 16.0367 156.454 15.706 155.993 15.4058C153.386 13.7081 150.545 12.546 147.558 11.7305C145.92 11.2831 144.258 10.9519 142.575 10.7191C141.344 10.5489 140.109 10.423 138.869 10.3711C137.44 10.3113 136.011 10.3313 134.582 10.4472C133.014 10.5745 131.458 10.7822 129.914 11.0764C128.82 11.285 127.737 11.5524 126.664 11.8599C124.467 12.4893 122.352 13.3212 120.342 14.4142C119.332 14.9632 118.365 15.581 117.445 16.2723C117.349 16.3442 117.215 16.3883 117.202 16.5732ZM137.335 50.4864C137.444 50.3864 137.517 50.3302 137.578 50.2624C138.008 49.7802 138.434 49.2951 138.863 48.8122C140.161 47.3514 141.458 45.891 142.756 44.4304C142.819 44.3597 142.88 44.2877 142.941 44.2158C143.033 44.1087 143.04 43.9923 142.99 43.8628C142.867 43.5454 142.662 43.2905 142.409 43.0705C141.985 42.7031 141.489 42.4698 140.965 42.2922C139.914 41.9364 138.823 41.8086 137.724 41.7412C136.966 41.695 136.215 41.783 135.469 41.8892C134.77 41.9888 134.078 42.1369 133.42 42.4105C132.982 42.5928 132.567 42.8123 132.218 43.1424C132.01 43.3394 131.842 43.5627 131.731 43.8318C131.662 44.0003 131.684 44.1343 131.805 44.2644C131.933 44.4034 132.055 44.5482 132.18 44.6897C133.58 46.2696 134.981 47.8499 136.382 49.4291C136.684 49.7695 136.992 50.1057 137.335 50.4864Z" fill="#CEC7DD"/>
<path d="M153.267 30.4961C155.207 30.1671 158.391 31.1519 160.032 34.1061C161.599 36.9244 161.104 40.3952 158.863 42.667C156.587 44.9757 153.123 45.4192 150.394 43.9366C147.362 42.2887 146.352 39.0154 146.697 36.9358C146.8 36.8459 146.903 36.9073 147.006 36.9346C147.873 37.1634 148.758 37.2022 149.615 36.968C151.526 36.4467 152.755 35.2011 153.306 33.2846C153.433 32.8413 153.489 32.392 153.474 31.9302C153.464 31.6132 153.446 31.3015 153.352 30.9956C153.302 30.834 153.272 30.6644 153.267 30.4961Z" fill="#CEC7DD"/>
<path d="M121.588 30.4632C121.553 30.6685 121.541 30.8266 121.497 30.9755C121.284 31.7083 121.303 32.4345 121.51 33.167C121.613 33.5324 121.721 33.8932 121.89 34.2329C122.657 35.7777 123.891 36.7258 125.571 37.0408C126.296 37.1767 127.042 37.1468 127.768 36.9583C127.872 36.9315 127.977 36.9107 128.112 36.8801C128.141 36.9849 128.18 37.0686 128.186 37.1546C128.398 40.6048 126.13 43.673 122.912 44.5454C119.986 45.3387 116.975 44.186 115.295 41.8819C114.208 40.3909 113.722 38.7184 113.919 36.8915C114.157 34.6872 115.205 32.9236 117.034 31.6621C118.288 30.7975 119.685 30.3838 121.21 30.4314C121.318 30.4345 121.425 30.4492 121.588 30.4632Z" fill="#CEC7DD"/>
</svg>
