<svg width="452" height="103" viewBox="0 0 452 103" fill="none" xmlns="http://www.w3.org/2000/svg">
<path d="M196.793 38.4204L191.393 43.5537C187.719 39.6923 183.586 37.7616 178.994 37.7616C175.118 37.7616 171.848 39.0792 169.185 41.7145C166.539 44.3498 165.217 47.5982 165.217 51.4596C165.217 54.1498 165.805 56.5381 166.98 58.6243C168.156 60.7106 169.818 62.3485 171.967 63.5381C174.117 64.7276 176.505 65.3224 179.131 65.3224C181.372 65.3224 183.421 64.9106 185.276 64.0871C187.131 63.2452 189.17 61.7263 191.393 59.5302L196.628 64.9655C193.634 67.8753 190.805 69.8975 188.142 71.0322C185.478 72.1485 182.438 72.7067 179.021 72.7067C172.721 72.7067 167.559 70.7211 163.536 66.7498C159.532 62.7603 157.529 57.6544 157.529 51.4322C157.529 47.406 158.439 43.8283 160.257 40.6988C162.094 37.5694 164.712 35.0531 168.11 33.1498C171.527 31.2466 175.2 30.2949 179.131 30.2949C182.475 30.2949 185.689 30.9995 188.775 32.4086C191.88 33.8178 194.552 35.8217 196.793 38.4204Z" fill="#CEC7DD"/>
<path d="M223.85 30.2949C229.581 30.2949 234.504 32.3629 238.619 36.4988C242.752 40.6348 244.818 45.6766 244.818 51.6243C244.818 57.5171 242.779 62.5041 238.702 66.5851C234.642 70.6662 229.71 72.7067 223.905 72.7067C217.825 72.7067 212.773 70.6113 208.751 66.4204C204.728 62.2296 202.716 57.2518 202.716 51.4871C202.716 47.6256 203.653 44.0753 205.527 40.8361C207.4 37.5969 209.972 35.0348 213.242 33.1498C216.53 31.2466 220.066 30.2949 223.85 30.2949ZM223.767 37.8165C220.02 37.8165 216.87 39.1158 214.316 41.7145C211.763 44.3132 210.486 47.6165 210.486 51.6243C210.486 56.0897 212.094 59.6217 215.308 62.2204C217.807 64.2518 220.672 65.2675 223.905 65.2675C227.561 65.2675 230.674 63.9498 233.246 61.3145C235.818 58.6792 237.103 55.4309 237.103 51.5694C237.103 47.7263 235.808 44.4779 233.218 41.8243C230.628 39.1524 227.478 37.8165 223.767 37.8165Z" fill="#CEC7DD"/>
<path d="M253.221 71.691V31.3106H259.586C263.278 31.3106 265.979 31.5485 267.687 32.0243C270.112 32.6649 272.04 33.8544 273.473 35.593C274.906 37.3315 275.622 39.3812 275.622 41.742C275.622 43.2792 275.292 44.6792 274.63 45.942C273.988 47.1864 272.931 48.3577 271.462 49.4557C273.923 50.6086 275.723 52.0544 276.862 53.793C278.001 55.5132 278.571 57.5537 278.571 59.9145C278.571 62.1838 277.983 64.2518 276.807 66.1185C275.632 67.9851 274.116 69.3851 272.261 70.3185C270.406 71.2335 267.843 71.691 264.573 71.691H253.221ZM260.936 38.64V47.1498H262.617C264.491 47.1498 265.878 46.7564 266.778 45.9694C267.696 45.1825 268.155 44.1119 268.155 42.7577C268.155 41.4949 267.724 40.4975 266.86 39.7655C265.997 39.0152 264.684 38.64 262.92 38.64H260.936ZM260.936 54.0126V64.3616H262.865C266.061 64.3616 268.21 63.959 269.313 63.1537C270.433 62.3485 270.993 61.1773 270.993 59.64C270.993 57.9015 270.341 56.5289 269.037 55.5224C267.733 54.5158 265.565 54.0126 262.534 54.0126H260.936Z" fill="#CEC7DD"/>
<path d="M287.111 31.3106H309.237V38.8322H294.771V46.1341H309.237V53.5185H294.771V64.142H309.237V71.691H287.111V31.3106Z" fill="#CEC7DD"/>
<path d="M313.589 31.3106H335.99V38.8871H328.606V71.691H320.781V38.8871H313.589V31.3106Z" fill="#CEC7DD"/>
<path d="M342.382 31.3106H350.207V46.5459H363.764V31.3106H371.561V71.691H363.764V53.9851H350.207V71.691H342.382V31.3106Z" fill="#CEC7DD"/>
<path d="M411.486 31.3106V71.691H403.77V46.4086L388.643 71.691H381.92V31.3106H389.635V57.4165L404.983 31.3106H411.486Z" fill="#CEC7DD"/>
<path d="M421.927 31.3106H429.725V45.2008L440.719 31.3106H450.005L435.842 49.3185L451.382 71.691H442.234L429.725 53.7655V71.691H421.927V31.3106Z" fill="#CEC7DD"/>
<path d="M11.7284 21.4001C11.1592 21.0743 10.5831 20.8803 10.0302 20.6372C9.4899 20.3998 8.94357 20.1753 8.4004 19.9449C7.83949 19.7069 7.27888 19.4681 6.71769 19.2304C6.15678 18.9928 5.59531 18.7557 5.03412 18.5186C4.47265 18.2815 3.91117 18.0456 3.3497 17.8085C2.80595 17.5788 2.26191 17.3498 1.71873 17.1188C1.15869 16.8805 0.599497 16.64 0 16.3831C0.0780461 16.275 0.125504 16.1727 0.203551 16.1066C2.44659 14.2053 4.73165 12.3597 7.21341 10.7745C8.47758 9.967 9.82209 9.35574 11.2895 9.03215C12.5683 8.75023 13.8533 8.65395 15.1384 8.9718C15.542 9.07181 15.9389 9.21866 16.3208 9.38562C17.6993 9.98769 19.0704 10.6076 20.4447 11.22C20.6353 11.305 20.8283 11.3846 21.0567 11.4824C21.2308 11.3504 21.4141 11.218 21.5908 11.0771C24.9662 8.38985 28.6249 6.17271 32.5573 4.41135C34.7849 3.41357 37.0742 2.58304 39.4222 1.92091C41.0165 1.47145 42.6312 1.1082 44.2616 0.809037C46.326 0.430269 48.4086 0.21847 50.4973 0.0563869C51.0662 0.0121303 51.6391 0.0129927 52.2106 0.00494599C52.8009 -0.00338805 53.3916 0.00810732 53.9822 0.00149756C55.6043 -0.0166074 57.2153 0.132256 58.8271 0.296063C60.1358 0.42912 61.4335 0.629424 62.7265 0.859616C63.5693 1.00963 64.4072 1.19441 65.24 1.39328C67.1108 1.84016 68.9533 2.38733 70.7607 3.04773C75.681 4.84501 80.228 7.33143 84.3893 10.5257C84.8576 10.8852 85.3216 11.2499 85.8076 11.6275C85.9688 11.5651 86.1281 11.5111 86.2813 11.4433C87.8834 10.7343 89.4912 10.038 91.0839 9.30803C92.3603 8.72293 93.6937 8.6301 95.0536 8.79362C96.7395 8.99622 98.303 9.57185 99.7596 10.4509C101.15 11.2898 102.471 12.229 103.75 13.2262C104.849 14.0823 105.922 14.9712 107.004 15.848C107.134 15.9534 107.253 16.0741 107.408 16.217C107.259 16.3575 107.1 16.4032 106.95 16.4664C103.879 17.7587 100.807 19.0517 97.7364 20.3449C96.9467 20.6774 96.1571 21.0105 95.3689 21.3461C95.2678 21.3892 95.1743 21.451 95.0765 21.5048C95.9121 22.8345 96.7469 24.132 97.5502 25.4491C98.3564 26.7713 99.0568 28.1522 99.7172 29.5534C100.378 30.9544 100.97 32.3844 101.5 33.8397C102.03 35.2947 102.494 36.7719 102.888 38.27C103.282 39.7684 103.612 41.282 103.865 42.8112C104.118 44.3403 104.28 45.881 104.439 47.4233C104.598 48.9703 104.608 50.5167 104.627 52.0668C104.645 53.6218 104.465 55.1611 104.325 56.704C104.187 58.2294 103.959 59.7428 103.671 61.2466C103.38 62.7689 103.021 64.2745 102.595 65.7642C102.168 67.2537 101.673 68.7191 101.115 70.1637C100.556 71.6087 99.9331 73.0243 99.2461 74.4124C98.5588 75.801 97.809 77.1543 97.0016 78.476C96.194 79.7979 95.3246 81.0779 94.4004 82.3197C93.4758 83.5617 92.4961 84.7584 91.4641 85.9125C90.432 87.0669 89.3477 88.169 88.2187 89.2269C87.0898 90.2847 85.9125 91.2859 84.6912 92.2352C65.0207 107.523 37.3018 106.423 18.8683 89.6031C9.38097 80.7374 3.7505 69.8755 2.40914 56.9052C1.0692 43.9515 4.2448 32.1255 11.7284 21.4001ZM10.0031 54.536C9.97361 54.7547 9.94274 54.8645 9.94645 54.9734C9.97104 55.7002 9.96675 56.4304 10.0399 57.1523C10.2275 59.0016 10.582 60.8224 11.0763 62.614C11.8413 65.3861 12.8742 68.0552 14.1326 70.6391C14.2884 70.9592 14.4994 71.1348 14.8213 71.2641C16.607 71.9809 18.3466 72.8008 20.0636 73.6695C24.4936 75.9108 28.7184 78.4935 32.7582 81.3825C35.507 83.3482 38.148 85.4507 40.6772 87.6951C43.207 89.9401 45.611 92.3125 47.8697 94.8325C48.0999 95.0891 48.3391 95.2348 48.6914 95.2696C50.2466 95.4234 51.8023 95.5421 53.3658 95.5561C55.2161 95.5728 57.058 95.459 58.8971 95.2616C59.2047 95.2285 59.4177 95.1035 59.6238 94.8785C60.5141 93.9071 61.4032 92.9335 62.3263 91.9941C66.3921 87.8558 70.8142 84.1425 75.5681 80.8264C78.8569 78.5323 82.2766 76.456 85.8262 74.5977C87.8682 73.5287 89.9452 72.5292 92.0945 71.6915C92.3595 71.5883 92.5401 71.43 92.6542 71.1618C92.8409 70.7224 93.0685 70.3005 93.2603 69.8632C94.3675 67.3385 95.2966 64.7532 95.9133 62.0588C96.2852 60.4331 96.5548 58.793 96.6583 57.1279C96.688 56.6508 96.6834 56.1715 96.6849 55.6933C96.6852 55.6134 96.6351 55.5332 96.6097 55.4579C96.5514 55.4703 96.5279 55.4685 96.5151 55.4792C96.4567 55.528 96.3993 55.5783 96.3455 55.6321C94.929 57.0457 93.3246 58.2007 91.5578 59.1292C88.8591 60.5474 85.9725 61.342 82.9616 61.7053C80.6234 61.9875 78.2894 61.9648 75.958 61.5886C74.6947 61.3846 73.4537 61.1018 72.2479 60.6799C68.2501 59.2812 64.9344 56.9557 62.5287 53.4049C62.4698 53.3181 62.3735 53.2569 62.276 53.1663C61.5481 53.767 60.8423 54.3481 60.1376 54.9306C59.4168 55.5263 58.6967 56.1229 57.9768 56.7195C57.2716 57.3041 56.5726 57.8963 55.8605 58.4723C55.1377 59.0568 54.4456 59.681 53.6743 60.2523C52.9539 59.6399 52.2578 59.0482 51.5613 58.4564C50.8632 57.8633 50.1654 57.2699 49.4672 56.677C48.7543 56.0718 48.0475 55.4594 47.3263 54.8642C46.6244 54.2848 45.9597 53.6586 45.2019 53.0994C45.0992 53.2253 45.0152 53.3233 44.9366 53.4256C44.5878 53.8799 44.2656 54.3575 43.8888 54.7872C41.1134 57.9518 37.616 59.891 33.5656 60.8702C32.2676 61.184 30.9463 61.3455 29.6135 61.4443C27.6446 61.5906 25.6906 61.4578 23.7463 61.1777C22.3521 60.9768 20.9801 60.6566 19.6308 60.2368C16.1178 59.1436 12.9851 57.4012 10.3413 54.8093C10.2644 54.7326 10.1726 54.6714 10.0031 54.536ZM98.024 40.5934C98.0388 30.8647 90.2093 22.906 80.4913 22.8327C70.7347 22.7592 62.7379 30.6466 62.6871 40.4952C62.6367 50.2661 70.4248 58.2547 80.1934 58.3418C90.1493 58.4303 98.0354 50.3365 98.024 40.5934ZM9.50476 40.5828C9.49619 50.2713 17.2525 58.2708 27.0403 58.3421C36.9596 58.4142 44.8885 50.3469 44.8434 40.5058C44.7982 30.7027 36.8689 22.8264 27.1638 22.8322C17.402 22.8376 9.50248 30.8001 9.50476 40.5828ZM29.3379 14.9973C29.4937 15.0735 29.6572 15.1611 29.8265 15.235C33.9458 17.0314 38.0637 18.8307 42.1861 20.6193C43.9852 21.3999 45.7962 22.1525 47.5964 22.9307C48.1862 23.1856 48.7997 23.2759 49.4309 23.3032C50.0825 23.3313 50.7283 23.2621 51.3632 23.1379C52.1543 22.9833 52.9041 22.7097 53.5345 22.1749C53.5894 22.1284 53.6634 22.1042 53.7438 22.0617C53.8904 22.1637 54.0325 22.2571 54.1686 22.3586C54.5239 22.6238 54.9173 22.8181 55.3336 22.9578C56.4734 23.3403 57.6478 23.4092 58.8336 23.2859C59.1318 23.2549 59.4317 23.1624 59.7119 23.05C60.5249 22.7247 61.3311 22.3818 62.1347 22.0338C65.6817 20.4975 69.2275 18.9583 72.7725 17.4168C74.4489 16.6877 76.1221 15.9514 77.7966 15.2183C77.9467 15.1525 78.113 15.1094 78.2228 14.9358C78.135 14.8562 78.0722 14.7867 77.9975 14.7335C77.4535 14.347 76.9183 13.9461 76.3594 13.5822C73.1996 11.5243 69.7564 10.1156 66.1348 9.12698C64.1491 8.58469 62.1347 8.18322 60.0947 7.90102C58.6021 7.69468 57.1052 7.54208 55.6023 7.47914C53.8701 7.40672 52.1383 7.43086 50.4061 7.57139C48.505 7.72571 46.6187 7.97746 44.7476 8.3341C43.4205 8.58699 42.1083 8.91116 40.8073 9.28389C38.1437 10.0469 35.5807 11.0553 33.1439 12.3801C31.9194 13.0457 30.747 13.7946 29.6318 14.6326C29.516 14.7197 29.3531 14.7732 29.3379 14.9973ZM53.7423 56.1068C53.8747 55.9855 53.9636 55.9174 54.0368 55.8353C54.558 55.2507 55.0751 54.6627 55.5952 54.0773C57.1678 52.3065 58.741 50.5362 60.3139 48.7657C60.39 48.68 60.4643 48.5927 60.5387 48.5056C60.6496 48.3757 60.6582 48.2346 60.5973 48.0777C60.4483 47.6929 60.2002 47.384 59.8928 47.1173C59.3794 46.6718 58.7788 46.389 58.1429 46.1738C56.8685 45.7424 55.5468 45.5875 54.2138 45.5059C53.2958 45.4499 52.3853 45.5565 51.4807 45.6852C50.6334 45.806 49.7946 45.9856 48.997 46.3172C48.4655 46.5382 47.9626 46.8043 47.5398 47.2043C47.2874 47.4432 47.0844 47.7139 46.95 48.0401C46.866 48.2444 46.8932 48.4067 47.0387 48.5645C47.1939 48.7329 47.3417 48.9085 47.4938 49.0801C49.1914 50.9952 50.8887 52.9109 52.5874 54.8251C52.9539 55.2378 53.3264 55.6453 53.7423 56.1068Z" fill="#CEC7DD"/>
<path d="M73.0549 31.8762C75.4063 31.4773 79.266 32.6711 81.2563 36.2521C83.1549 39.6685 82.5551 43.8757 79.8392 46.6297C77.0799 49.4282 72.8802 49.9659 69.5729 48.1686C65.8967 46.171 64.6725 42.2032 65.0911 39.6823C65.2154 39.5734 65.3404 39.6478 65.4661 39.6808C66.5171 39.9582 67.5888 40.0053 68.6289 39.7214C70.9448 39.0894 72.4351 37.5795 73.1024 35.2563C73.2567 34.7189 73.3245 34.1743 73.3065 33.6145C73.2942 33.2303 73.2728 32.8524 73.1584 32.4817C73.0981 32.2857 73.0612 32.0802 73.0549 31.8762Z" fill="#CEC7DD"/>
<path d="M34.6548 31.8399C34.6119 32.0887 34.5971 32.2804 34.5445 32.4609C34.2855 33.3492 34.3092 34.2294 34.5596 35.1174C34.6845 35.5603 34.8161 35.9977 35.0205 36.4095C35.9499 38.2821 37.4459 39.4313 39.4825 39.8132C40.3613 39.9779 41.2653 39.9417 42.1461 39.7132C42.2713 39.6808 42.3988 39.6555 42.5632 39.6184C42.5981 39.7454 42.6455 39.8469 42.6518 39.9512C42.9091 44.1334 40.1606 47.8527 36.2589 48.9103C32.712 49.8719 29.0627 48.4746 27.026 45.6816C25.7078 43.8742 25.1195 41.8468 25.3585 39.6322C25.6469 36.9601 26.9165 34.8223 29.1341 33.2931C30.6542 32.2451 32.3475 31.7436 34.1965 31.8014C34.3269 31.8051 34.457 31.8229 34.6548 31.8399Z" fill="#CEC7DD"/>
</svg>
