<svg width="502" height="76" viewBox="0 0 502 76" fill="none" xmlns="http://www.w3.org/2000/svg">
<path d="M67.0763 13.933L57.8504 22.7353C51.5742 16.114 44.5136 12.8033 36.6684 12.8033C30.047 12.8033 24.4613 15.0628 19.9111 19.5816C15.3922 24.1004 13.1328 29.6705 13.1328 36.2918C13.1328 40.9048 14.137 45 16.1454 48.5774C18.1537 52.1548 20.9937 54.9634 24.6653 57.0031C28.3368 59.0429 32.4163 60.0627 36.9037 60.0627C40.7322 60.0627 44.2311 59.3567 47.4006 57.9445C50.57 56.501 54.0533 53.8964 57.8504 50.1307L66.7939 59.4508C61.6788 64.4403 56.8462 67.9079 52.296 69.8535C47.7458 71.7677 42.5523 72.7249 36.7155 72.7249C25.9519 72.7249 17.1339 69.32 10.2615 62.5104C3.4205 55.6694 0 46.9142 0 36.2447C0 29.341 1.55335 23.2061 4.66004 17.8399C7.79811 12.4738 12.2699 8.15899 18.0753 4.89539C23.9121 1.6318 30.1883 0 36.9037 0C42.615 0 48.1067 1.20816 53.3786 3.62447C58.682 6.04079 63.2479 9.47698 67.0763 13.933Z" fill="white"/>
<path d="M163.474 70.9832V1.74163H174.348C180.655 1.74163 185.268 2.14958 188.186 2.96548C192.329 4.06381 195.624 6.10355 198.071 9.08472C200.519 12.0659 201.743 15.5805 201.743 19.6286C201.743 22.2646 201.178 24.6653 200.048 26.8305C198.95 28.9644 197.146 30.9728 194.635 32.8556C198.84 34.8326 201.916 37.3117 203.861 40.2929C205.807 43.2427 206.78 46.7416 206.78 50.7897C206.78 54.6809 205.775 58.227 203.767 61.4278C201.759 64.6286 199.17 67.0293 196 68.6297C192.831 70.1987 188.453 70.9832 182.867 70.9832H163.474ZM176.654 14.3096V28.9017H179.525C182.726 28.9017 185.095 28.227 186.633 26.8776C188.202 25.5282 188.987 23.6925 188.987 21.3703C188.987 19.205 188.249 17.4948 186.774 16.2395C185.299 14.9529 183.056 14.3096 180.043 14.3096H176.654ZM176.654 40.6694V58.4152H179.949C185.409 58.4152 189.081 57.7249 190.964 56.3441C192.878 54.9634 193.835 52.955 193.835 50.319C193.835 47.3378 192.721 44.9843 190.493 43.2583C188.265 41.5324 184.562 40.6694 179.384 40.6694H176.654Z" fill="white"/>
<path d="M221.37 1.74163H259.168V14.6391H234.455V27.16H259.168V39.8222H234.455V58.0387H259.168V70.9832H221.37V1.74163Z" fill="white"/>
<path d="M266.603 1.74163H304.872V14.7333H292.257V70.9832H278.889V14.7333H266.603V1.74163Z" fill="white"/>
<path d="M315.791 1.74163H329.159V27.8661H352.318V1.74163H365.639V70.9832H352.318V40.6224H329.159V70.9832H315.791V1.74163Z" fill="white"/>
<path d="M433.843 1.74163V70.9832H420.663V27.6307L394.821 70.9832H383.336V1.74163H396.516V46.5062L422.734 1.74163H433.843Z" fill="white"/>
<path d="M451.681 1.74163H465.002V25.5596L483.783 1.74163H499.646L475.452 32.6203L502 70.9832H486.372L465.002 40.2458V70.9832H451.681V1.74163Z" fill="white"/>
<path d="M86.1077 18.0372C85.721 17.819 85.3296 17.6892 84.954 17.5264C84.5869 17.3674 84.2157 17.2172 83.8466 17.0629C83.4655 16.9035 83.0846 16.7436 82.7033 16.5845C82.3223 16.4254 81.9408 16.2666 81.5595 16.1079C81.178 15.9492 80.7965 15.7912 80.415 15.6325C80.0456 15.4787 79.676 15.3254 79.3069 15.1707C78.9264 15.0112 78.5465 14.8501 78.1392 14.6781C78.1922 14.6057 78.2244 14.5372 78.2775 14.493C79.8014 13.22 81.354 11.9843 83.0402 10.923C83.8991 10.3823 84.8126 9.97302 85.8096 9.75636C86.6784 9.56761 87.5515 9.50315 88.4246 9.71596C88.6989 9.78292 88.9685 9.88124 89.228 9.99303C90.1646 10.3961 91.0961 10.8112 92.0298 11.2212C92.1594 11.2782 92.2905 11.3315 92.4457 11.3969C92.564 11.3086 92.6885 11.2199 92.8085 11.1256C95.1019 9.32632 97.5877 7.84186 100.259 6.66256C101.773 5.9945 103.328 5.43843 104.924 4.99511C106.007 4.69418 107.104 4.45097 108.212 4.25067C109.614 3.99707 111.029 3.85526 112.448 3.74674C112.835 3.71711 113.224 3.71768 113.613 3.7123C114.014 3.70672 114.415 3.71441 114.816 3.70999C115.918 3.69787 117.013 3.79753 118.108 3.90721C118.997 3.9963 119.879 4.13041 120.757 4.28453C121.33 4.38497 121.899 4.50869 122.465 4.64184C123.736 4.94104 124.988 5.3074 126.216 5.74956C129.559 6.95291 132.648 8.61767 135.476 10.7563C135.794 10.997 136.109 11.2412 136.439 11.494C136.549 11.4523 136.657 11.4161 136.761 11.3707C137.85 10.896 138.942 10.4298 140.024 9.94108C140.891 9.54933 141.797 9.48718 142.721 9.59666C143.867 9.73231 144.929 10.1177 145.919 10.7063C146.863 11.268 147.761 11.8968 148.63 12.5644C149.376 13.1376 150.105 13.7328 150.841 14.3198C150.929 14.3904 151.01 14.4712 151.115 14.5669C151.014 14.661 150.906 14.6916 150.804 14.7339C148.717 15.5992 146.631 16.4648 144.544 17.3307C144.008 17.5533 143.471 17.7763 142.936 18.0011C142.867 18.0299 142.803 18.0713 142.737 18.1073C143.305 18.9976 143.872 19.8663 144.418 20.7481C144.965 21.6334 145.441 22.558 145.89 23.4962C146.339 24.4342 146.741 25.3916 147.101 26.366C147.461 27.3402 147.777 28.3292 148.044 29.3322C148.312 30.3355 148.536 31.3489 148.708 32.3728C148.88 33.3966 148.99 34.4281 149.098 35.4608C149.206 36.4965 149.213 37.5319 149.226 38.5698C149.238 39.6109 149.116 40.6415 149.021 41.6746C148.927 42.6959 148.772 43.7091 148.576 44.716C148.379 45.7352 148.134 46.7433 147.845 47.7408C147.555 48.738 147.219 49.7191 146.839 50.6864C146.46 51.6539 146.037 52.6017 145.57 53.531C145.103 54.4608 144.593 55.3668 144.045 56.2517C143.496 57.1368 142.905 57.9939 142.277 58.8253C141.649 59.6569 140.984 60.4581 140.282 61.2308C139.581 62.0037 138.845 62.7416 138.077 63.4499C137.31 64.1582 136.511 64.8285 135.681 65.4641C122.316 75.6997 103.483 74.9633 90.9588 63.7018C84.5129 57.7658 80.6874 50.4934 79.776 41.8092C78.8656 33.1362 81.0232 25.2183 86.1077 18.0372ZM84.9355 40.223C84.9155 40.3694 84.8945 40.4429 84.8971 40.5159C84.9138 41.0025 84.9109 41.4914 84.9606 41.9747C85.088 43.2129 85.3289 44.432 85.6647 45.6315C86.1845 47.4875 86.8862 49.2747 87.7413 51.0047C87.8471 51.219 87.9905 51.3366 88.2092 51.4231C89.4224 51.903 90.6043 52.452 91.7709 53.0336C94.7808 54.5343 97.6513 56.2635 100.396 58.1978C102.264 59.5139 104.058 60.9216 105.776 62.4243C107.495 63.9275 109.129 65.5158 110.663 67.2031C110.82 67.3749 110.982 67.4725 111.221 67.4958C112.278 67.5987 113.335 67.6782 114.397 67.6876C115.655 67.6988 116.906 67.6226 118.156 67.4904C118.365 67.4683 118.509 67.3846 118.649 67.2339C119.254 66.5835 119.858 65.9316 120.485 65.3027C123.248 62.5319 126.252 60.0457 129.482 57.8255C131.717 56.2895 134.04 54.8993 136.452 53.6551C137.839 52.9394 139.25 52.2701 140.711 51.7093C140.891 51.6402 141.014 51.5342 141.091 51.3546C141.218 51.0604 141.373 50.778 141.503 50.4851C142.255 48.7948 142.886 47.0638 143.305 45.2598C143.558 44.1713 143.741 43.0732 143.812 41.9584C143.832 41.639 143.829 41.318 143.83 40.9978C143.83 40.9444 143.796 40.8907 143.779 40.8403C143.739 40.8485 143.723 40.8474 143.714 40.8545C143.675 40.8872 143.636 40.9209 143.599 40.9569C142.637 41.9033 141.547 42.6766 140.346 43.2983C138.513 44.2479 136.551 44.7799 134.506 45.0231C132.917 45.2121 131.331 45.1969 129.747 44.945C128.889 44.8084 128.046 44.619 127.226 44.3366C124.51 43.4001 122.257 41.8431 120.623 39.4657C120.583 39.4076 120.517 39.3666 120.451 39.306C119.957 39.7081 119.477 40.0972 118.998 40.4872C118.509 40.8861 118.019 41.2855 117.53 41.685C117.051 42.0763 116.576 42.4729 116.092 42.8585C115.601 43.2498 115.131 43.6678 114.607 44.0503C114.118 43.6402 113.645 43.2441 113.171 42.8479C112.697 42.4508 112.223 42.0534 111.749 41.6565C111.264 41.2513 110.784 40.8412 110.294 40.4427C109.817 40.0548 109.366 39.6356 108.851 39.2611C108.781 39.3454 108.724 39.411 108.67 39.4795C108.433 39.7837 108.214 40.1035 107.958 40.3912C106.073 42.51 103.697 43.8084 100.945 44.464C100.063 44.6741 99.165 44.7822 98.2594 44.8484C96.9217 44.9463 95.5941 44.8574 94.2731 44.6698C93.3258 44.5354 92.3936 44.321 91.4768 44.0399C89.0901 43.3079 86.9616 42.1414 85.1653 40.406C85.1131 40.3546 85.0507 40.3136 84.9355 40.223ZM144.739 30.8879C144.75 24.3742 139.43 19.0455 132.827 18.9964C126.198 18.9472 120.765 24.2281 120.731 30.8221C120.696 37.3641 125.988 42.7128 132.625 42.7711C139.389 42.8304 144.747 37.4113 144.739 30.8879ZM84.597 30.8808C84.5911 37.3676 89.861 42.7236 96.5111 42.7713C103.251 42.8196 108.638 37.4182 108.607 30.8292C108.576 24.2656 103.189 18.9922 96.595 18.996C89.9626 18.9997 84.5954 24.3309 84.597 30.8808ZM98.0722 13.7503C98.178 13.8013 98.2891 13.86 98.4041 13.9094C101.203 15.1122 104.001 16.3169 106.802 17.5144C108.024 18.037 109.254 18.541 110.478 19.062C110.878 19.2327 111.295 19.2931 111.724 19.3114C112.167 19.3302 112.605 19.2839 113.037 19.2008C113.574 19.0972 114.084 18.9141 114.512 18.556C114.549 18.5248 114.6 18.5086 114.654 18.4802C114.754 18.5485 114.85 18.611 114.943 18.6789C115.184 18.8565 115.452 18.9866 115.734 19.0801C116.509 19.3362 117.307 19.3824 118.112 19.2998C118.315 19.2791 118.519 19.2171 118.709 19.1419C119.262 18.9241 119.809 18.6945 120.355 18.4615C122.765 17.4329 125.174 16.4023 127.583 15.3702C128.722 14.882 129.859 14.3891 130.996 13.8982C131.098 13.8542 131.211 13.8253 131.286 13.7091C131.226 13.6558 131.184 13.6092 131.133 13.5736C130.763 13.3148 130.4 13.0464 130.02 12.8028C127.873 11.425 125.534 10.4818 123.073 9.81986C121.724 9.45678 120.355 9.18798 118.969 8.99903C117.955 8.86088 116.938 8.7587 115.917 8.71657C114.74 8.66808 113.563 8.68424 112.386 8.77833C111.095 8.88166 109.813 9.05021 108.542 9.28899C107.64 9.45832 106.749 9.67536 105.865 9.92492C104.055 10.4358 102.314 11.111 100.658 11.998C99.8261 12.4436 99.0296 12.945 98.2718 13.5061C98.1932 13.5644 98.0825 13.6002 98.0722 13.7503ZM114.653 41.2747C114.743 41.1935 114.804 41.1479 114.853 41.0929C115.207 40.7015 115.559 40.3079 115.912 39.9159C116.981 38.7303 118.049 37.545 119.118 36.3595C119.17 36.3022 119.22 36.2437 119.271 36.1854C119.346 36.0984 119.352 36.004 119.311 35.8989C119.209 35.6413 119.041 35.4344 118.832 35.2559C118.483 34.9576 118.075 34.7683 117.643 34.6242C116.777 34.3354 115.879 34.2317 114.974 34.177C114.35 34.1395 113.731 34.2109 113.117 34.2971C112.541 34.3779 111.971 34.4981 111.429 34.7202C111.068 34.8682 110.726 35.0463 110.439 35.3142C110.268 35.4741 110.13 35.6553 110.038 35.8737C109.981 36.0105 110 36.1192 110.099 36.2249C110.204 36.3376 110.304 36.4552 110.408 36.57C111.561 37.8523 112.714 39.1349 113.869 40.4166C114.118 40.6929 114.371 40.9657 114.653 41.2747Z" fill="white"/>
<path d="M127.775 25.0511C129.372 24.7841 131.995 25.5833 133.347 27.981C134.637 30.2684 134.229 33.0853 132.384 34.9292C130.509 36.8029 127.656 37.1629 125.409 35.9596C122.911 34.6221 122.079 31.9655 122.364 30.2776C122.448 30.2047 122.533 30.2545 122.619 30.2767C123.333 30.4623 124.061 30.4939 124.767 30.3038C126.341 29.8807 127.354 28.8697 127.807 27.3143C127.912 26.9545 127.958 26.5898 127.946 26.215C127.937 25.9578 127.923 25.7047 127.845 25.4565C127.804 25.3253 127.779 25.1877 127.775 25.0511Z" fill="white"/>
<path d="M101.685 25.0229C101.655 25.1896 101.645 25.3179 101.61 25.4387C101.434 26.0335 101.45 26.6228 101.62 27.2174C101.705 27.5139 101.794 27.8068 101.933 28.0825C102.564 29.3362 103.581 30.1057 104.965 30.3614C105.562 30.4717 106.176 30.4474 106.774 30.2945C106.859 30.2727 106.946 30.2558 107.058 30.231C107.081 30.316 107.114 30.3839 107.118 30.4538C107.293 33.254 105.425 35.7442 102.774 36.4523C100.365 37.0961 97.8851 36.1606 96.5014 34.2905C95.6057 33.0804 95.206 31.7229 95.3684 30.2402C95.5644 28.4511 96.427 27.0198 97.9337 25.996C98.9664 25.2942 100.117 24.9585 101.373 24.9971C101.462 24.9996 101.55 25.0116 101.685 25.0229Z" fill="white"/>
</svg>
