<svg width="48" height="48" viewBox="0 0 48 48" fill="none" xmlns="http://www.w3.org/2000/svg">
<path d="M23.0825 3.11573C23.4307 2.31285 24.5693 2.31285 24.9175 3.11573L30.2825 15.488C30.4274 15.8221 30.7425 16.0511 31.1051 16.0856L44.5297 17.3648C45.4008 17.4479 45.7527 18.5307 45.0967 19.1099L34.9879 28.0356C34.7149 28.2767 34.5945 28.6471 34.6737 29.0026L37.6055 42.1655C37.7957 43.0197 36.8746 43.6889 36.121 43.244L24.5084 36.3881C24.1948 36.203 23.8052 36.203 23.4916 36.3881L11.879 43.244C11.1254 43.6889 10.2043 43.0197 10.3945 42.1655L13.3263 29.0026C13.4055 28.6471 13.2852 28.2767 13.0121 28.0356L2.90332 19.1099C2.24732 18.5307 2.59916 17.4479 3.47033 17.3648L16.8949 16.0856C17.2575 16.0511 17.5726 15.8221 17.7175 15.488L23.0825 3.11573Z" fill="#3B1788"/>
</svg>
